<?xml version="1.0" encoding="UTF-8" standalone="no"?>
<!-- Created with Inkscape (http://www.inkscape.org/) -->

<svg
   width="32"
   height="32"
   viewBox="0 0 8.4666665 8.4666666"
   version="1.1"
   id="svg1"
   xmlns="http://www.w3.org/2000/svg"
   xmlns:svg="http://www.w3.org/2000/svg">
  <defs
     id="defs1" />
  <g
     id="layer1">
    <rect
       style="fill:#e6e6e6;fill-opacity:1;stroke-width:0.264583"
       id="rect4"
       width="8.4666662"
       height="8.4666662"
       x="-2.5715385e-15"
       y="0"
       rx="0.52921957"
       ry="0.52916664" />
    <path
       fill-rule="evenodd"
       clip-rule="evenodd"
       d="m 2.6934531,2.6652131 c 0,0.0393 -0.0276,0.0559 -0.0713,0.0559 h -0.0912 v -0.11188 h 0.0977 c 0.0418,0 0.0649,0.0196 0.0649,0.0545 z m 0.0251,0.21163 v -0.002 c 0,-0.0355 -0.0225,-0.0574 -0.0733,-0.0574 h -0.11437 v 0.11635 h 0.11758 c 0.0437,0 0.0701,-0.0181 0.0701,-0.0574 z m 0.72491,-0.062 h -0.11952 l 0.0597,-0.17161 z m 1.00597,1.31349 c 0,0.14197 -0.0998,0.20201 -0.25761,0.20201 h -0.32192 v -0.40404 h 0.34512 c 0.15087,0 0.23441,0.071 0.23441,0.19657 z m -0.1751,0.55104 c 0.18327,0 0.26447,0.0792 0.26447,0.20743 v 0.005 c 0,0.13927 -0.0918,0.20478 -0.24432,0.20711 h -0.42458 v -0.41995 z m 1.56356,-1.74137 c 0.0797,0 0.13495,-0.074 0.13495,-0.16474 v -0.002 c 0,-0.0907 -0.0565,-0.16623 -0.13623,-0.16623 -0.0797,0 -0.13495,0.074 -0.13495,0.16474 v 10e-4 c 0,0.0907 0.0565,0.16628 0.13623,0.16628 z m 0.64458,-0.95979 v 3.12111 h -0.009 l -0.18593,-0.22092 c -0.12604,0.1347 -0.23822,0.22092 -0.42153,0.22092 -0.27487,0 -0.465,-0.26943 -0.465,-0.59271 v -0.005 c 0,-0.32336 0.1947,-0.5873 0.465,-0.5873 0.14277,0 0.25837,0.0642 0.36924,0.17137 l 0.22635,-0.30578 c -0.14181,-0.14893 -0.31668,-0.24822 -0.59329,-0.24822 -0.49253,0 -0.83614,0.43918 -0.83614,0.9753 v 0.005 c 0,0.22214 0.059,0.42508 0.16113,0.58735 h -0.32263 c 0.0124,-0.0474 0.0189,-0.0993 0.0189,-0.15592 v -0.005 c 0,-0.25325 -0.11449,-0.38519 -0.30006,-0.46871 0.11452,-0.0754 0.21076,-0.19931 0.21076,-0.41211 v -0.005 c 0,-0.2963 -0.2016,-0.48759 -0.52914,-0.48759 h -0.74455 v 1.53515 h -0.0782 l -0.55504,-1.53408 h -0.34426 l -0.55505,1.53408 h -0.009 v -3.12111 z m -0.88427,0.79501 c 0,0.15046 0.0996,0.27209 0.23841,0.27209 0.13881,0 0.23972,-0.12321 0.23972,-0.27354 v -0.002 c 0,-0.15037 -0.0996,-0.27204 -0.23844,-0.27204 -0.13881,0 -0.23969,0.12321 -0.23969,0.27363 z m -0.78334,0 c 0,0.15191 0.0983,0.27209 0.23067,0.27209 0.0868,0 0.13817,-0.0363 0.18447,-0.0944 l -0.063,-0.0748 c -0.0353,0.0378 -0.0668,0.062 -0.11825,0.062 -0.0771,0 -0.13044,-0.0755 -0.13044,-0.16623 v -0.002 c 0,-0.0906 0.0546,-0.16474 0.13044,-0.16474 0.045,0 0.0803,0.0227 0.11504,0.0597 l 0.063,-0.0854 c -0.0418,-0.0483 -0.0925,-0.0816 -0.17736,-0.0816 -0.13817,0 -0.23452,0.12321 -0.23452,0.27363 z m -0.80973,0.26304 h 0.0977 v -0.33629 l 0.21787,0.33629 h 0.0841 v -0.52907 h -0.0977 v 0.32574 l -0.21075,-0.32574 h -0.0913 z m -0.85855,0 h 0.10088 l 0.0411,-0.11864 h 0.19022 l 0.0411,0.11864 h 0.10346 l -0.19276,-0.53285 h -0.0912 z m -0.71206,0 h 0.21397 c 0.10155,0 0.1684,-0.0484 0.1684,-0.14515 v -10e-4 c 0,-0.0711 -0.0321,-0.10661 -0.0842,-0.13003 0.0321,-0.0212 0.0591,-0.0544 0.0591,-0.11407 v -0.002 c 0,-0.0831 -0.0566,-0.13679 -0.14845,-0.13679 h -0.20885 z m 0.28403,1.01326 0.36392,1.04985 h -0.72785 z m 3.76392,2.42525 h -0.54494 v -0.95243 h 0.17815 v 0.76193 h 0.36679 z m -0.99039,0 h 0.17816 v -0.95243 h -0.17816 z m -0.54667,0.0136 c -0.12261,0 -0.24643,-0.0503 -0.34358,-0.15238 l 0.10525,-0.14832 c 0.0729,0.0708 0.14928,0.11566 0.24178,0.11566 0.0729,0 0.11686,-0.034 0.11686,-0.0898 v -0.003 c 0,-0.0531 -0.0278,-0.0803 -0.16312,-0.12112 -0.16312,-0.0489 -0.26839,-0.10208 -0.26839,-0.29112 v -0.003 c 0,-0.17281 0.11801,-0.28712 0.28343,-0.28712 0.11802,0 0.21865,0.0435 0.30077,0.12112 l -0.0926,0.15779 c -0.0717,-0.0585 -0.14229,-0.0938 -0.21056,-0.0938 -0.0682,0 -0.10409,0.0368 -0.10409,0.083 v 0.003 c 0,0.0626 0.0347,0.083 0.17466,0.12526 0.16431,0.0503 0.25686,0.11967 0.25686,0.28572 v 0.003 c 0,0.18905 -0.12262,0.29519 -0.29732,0.29519 z m -0.62221,-0.0136 -0.0741,-0.21364 h -0.34243 l -0.074,0.21364 h -0.18157 l 0.34698,-0.95924 h 0.16427 l 0.34706,0.95924 z m -0.24527,-0.70748 -0.10759,0.30881 h 0.21517 z m -0.71753,0.70748 -0.17352,-0.30475 h -0.13995 v 0.30475 h -0.1782 v -0.95243 h 0.3702 c 0.19088,0 0.30545,0.11837 0.30545,0.31432 v 0.003 c 0,0.15373 -0.0706,0.25035 -0.17352,0.29524 l 0.1978,0.34016 z m 0.003,-0.62723 c 0,-0.0898 -0.0532,-0.13606 -0.13995,-0.13606 h -0.177 v 0.2735 h 0.18045 c 0.0868,0 0.1365,-0.0545 0.1365,-0.1347 z m -0.99398,0.62723 h -0.38523 v -0.95243 h 0.37594 c 0.16546,0 0.26725,0.0966 0.26725,0.2463 v 0.003 c 0,0.10751 -0.0486,0.16736 -0.10643,0.20548 0.0937,0.0421 0.15158,0.10609 0.15158,0.23397 v 0.003 c 0,0.17417 -0.12036,0.26123 -0.30311,0.26123 z m 0.081,-0.67076 c 0,-0.0626 -0.0417,-0.098 -0.11683,-0.098 h -0.17585 v 0.20138 h 0.16427 c 0.0787,0 0.12841,-0.0299 0.12841,-0.10069 z m 0.0451,0.38094 c 0,-0.0639 -0.0405,-0.10339 -0.13186,-0.10339 h -0.20592 v 0.20953 h 0.21172 c 0.0787,0 0.12606,-0.0327 0.12606,-0.10339 z"
       fill="#1e1e1e"
       id="path2"
       style="stroke-width:10.7445" />
  </g>
</svg>
