<?xml version="1.0" encoding="UTF-8" standalone="no"?>
<!-- Created with Inkscape (http://www.inkscape.org/) -->

<svg
   width="32"
   height="32"
   viewBox="0 0 8.4666665 8.4666666"
   version="1.1"
   id="svg1"
   xmlns="http://www.w3.org/2000/svg"
   xmlns:svg="http://www.w3.org/2000/svg">
  <defs
     id="defs1" />
  <g
     id="layer1">
    <rect
       style="fill:#fff22d;fill-opacity:1;stroke-width:0.264583"
       id="rect4"
       width="8.4666662"
       height="8.4666662"
       x="-2.5715385e-15"
       y="0"
       rx="0.52921957"
       ry="0.52916664" />
    <path
       d="m 1.9843781,5.8592661 0.4685,-0.312563 0.4685,0.312563 -0.937,0.625529 z m 4.49771,-3.251664 -0.4685,0.312563 -0.46851,-0.312563 0.93701,-0.625731 z m 0,2.376084 -2.24886,1.501109 -2.24885,-1.501109 2.67063,-1.782214 0.4685,0.312765 -2.1552,1.438394 1.31185,0.87558 0.6089,-0.406534 -0.46851,-0.312764 1.12453,-0.750756 z m -4.49771,-1.500504 2.24905,-1.500706 2.24886,1.500706 -2.67063,1.782214 -0.4685,-0.312765 2.15519,-1.438394 -1.31185,-0.875379 -0.60909,0.406534 0.4685,0.312563 -1.12453,0.750756 z"
       style="fill:#2360a5;stroke-width:3.75932"
       id="path1" />
  </g>
</svg>
