<?xml version="1.0" encoding="UTF-8" standalone="no"?>
<!-- Created with Inkscape (http://www.inkscape.org/) -->

<svg
   width="32"
   height="32"
   viewBox="0 0 8.4666665 8.4666666"
   version="1.1"
   id="svg1"
   sodipodi:docname="bradesco.svg"
   inkscape:version="1.3.2 (091e20e, 2023-11-25, custom)"
   xmlns:inkscape="http://www.inkscape.org/namespaces/inkscape"
   xmlns:sodipodi="http://sodipodi.sourceforge.net/DTD/sodipodi-0.dtd"
   xmlns="http://www.w3.org/2000/svg"
   xmlns:svg="http://www.w3.org/2000/svg">
  <sodipodi:namedview
     id="namedview1"
     pagecolor="#505050"
     bordercolor="#eeeeee"
     borderopacity="1"
     inkscape:showpageshadow="0"
     inkscape:pageopacity="0"
     inkscape:pagecheckerboard="0"
     inkscape:deskcolor="#505050"
     inkscape:document-units="px"
     inkscape:zoom="11.313708"
     inkscape:cx="9.3691649"
     inkscape:cy="15.954097"
     inkscape:window-width="1920"
     inkscape:window-height="1009"
     inkscape:window-x="-8"
     inkscape:window-y="-8"
     inkscape:window-maximized="1"
     inkscape:current-layer="layer1" />
  <defs
     id="defs1" />
  <g
     inkscape:label="Camada 1"
     inkscape:groupmode="layer"
     id="layer1">
    <path
       id="rect4"
       style="fill:#e5173f;fill-opacity:1;stroke-width:0.126571"
       d="M 0.27956949 0 C 0.12472696 0 0 0.10241479 0 0.22944336 L 0 8.2372232 C 0 8.3642518 0.12472696 8.4666666 0.27956949 8.4666666 L 8.1870971 8.4666666 C 8.3419396 8.4666666 8.4666666 8.3642518 8.4666666 8.2372232 L 8.4666666 0.22944336 C 8.4666665 0.10241479 8.3419396 0 8.1870971 0 L 0.27956949 0 z M 4.3449544 1.9507853 C 4.8791838 1.9507853 5.3584604 2.197576 5.6807901 2.5838216 C 5.3729704 2.3078989 4.9692985 2.139921 4.5278889 2.139921 C 3.9820295 2.139921 3.494229 2.3950543 3.1718994 2.7956949 C 3.4100491 2.757925 3.6597979 2.7378173 3.9212076 2.7378173 C 5.3352562 2.7378173 6.4822916 3.3421078 6.4822916 4.0912231 C 6.4822916 4.5036107 6.1340382 4.8747484 5.5851887 5.1216511 C 5.9714283 4.8836154 6.2063394 4.5761555 6.2063394 4.2364339 C 6.2063394 3.4901976 5.0594241 2.8830281 3.6452555 2.8830281 A 5.0946836 5.0946836 0 0 0 3.0819824 2.9150675 C 2.8816126 3.2113732 2.762622 3.5710609 2.762622 3.9630655 C 2.762622 4.4159901 2.9220034 4.831653 3.1920532 5.1511067 C 2.8145536 4.817143 2.5796875 4.323298 2.5796875 3.7744466 C 2.5796875 3.4840129 2.6435422 3.2080689 2.762622 2.9641601 C 2.4751823 3.0223161 2.2137747 3.1038032 1.984375 3.2054891 C 2.2137747 3.0661452 2.4926711 2.9529592 2.8091308 2.8716593 C 3.1140705 2.3228069 3.688655 1.9507853 4.3449544 1.9507853 z M 4.2839762 4.4395222 L 4.7108235 4.4395222 L 4.7108235 6.5158813 L 4.2839762 6.5158813 L 4.2839762 4.4395222 z M 3.8256062 5.1247517 L 4.0142252 5.1247517 L 4.0142252 6.5158813 L 3.8256062 6.5158813 L 3.8256062 5.1247517 z " />
  </g>
</svg>
