<?xml version="1.0" encoding="UTF-8" standalone="no"?>
<!-- Created with Inkscape (http://www.inkscape.org/) -->

<svg
   width="32"
   height="32"
   viewBox="0 0 32 32"
   version="1.1"
   id="svg1"
   xmlns:xlink="http://www.w3.org/1999/xlink"
   xmlns="http://www.w3.org/2000/svg"
   xmlns:svg="http://www.w3.org/2000/svg">
  <defs
     id="defs1">
    <clipPath
       id="SVGID_1_">
      <rect
         id="use7"
         x="1.411811"
         y="1.411811"
         width="455"
         height="329"
         style="enable-background:new" />
    </clipPath>
    <clipPath
       id="SVGID_4_">
      <use
         xlink:href="#SVGID_53_"
         style="overflow:visible"
         id="use31"
         x="0"
         y="0"
         width="100%"
         height="100%" />
    </clipPath>
    <clipPath
       id="SVGID_5_">
      <use
         xlink:href="#SVGID_55_"
         style="overflow:visible"
         id="use37"
         x="0"
         y="0"
         width="100%"
         height="100%" />
    </clipPath>
    <clipPath
       id="SVGID_6_">
      <use
         xlink:href="#SVGID_57_"
         style="overflow:visible"
         id="use43"
         x="0"
         y="0"
         width="100%"
         height="100%" />
    </clipPath>
    <clipPath
       id="SVGID_7_">
      <use
         xlink:href="#SVGID_59_"
         style="overflow:visible"
         id="use49"
         x="0"
         y="0"
         width="100%"
         height="100%" />
    </clipPath>
    <clipPath
       id="SVGID_8_">
      <use
         xlink:href="#SVGID_61_"
         style="overflow:visible"
         id="use55"
         x="0"
         y="0"
         width="100%"
         height="100%" />
    </clipPath>
    <clipPath
       id="SVGID_9_">
      <use
         xlink:href="#SVGID_63_"
         style="overflow:visible"
         id="use61"
         x="0"
         y="0"
         width="100%"
         height="100%" />
    </clipPath>
    <clipPath
       id="clipPath1">
      <use
         xlink:href="#SVGID_55_"
         style="overflow:visible"
         id="use1"
         x="0"
         y="0"
         width="100%"
         height="100%" />
    </clipPath>
    <clipPath
       id="clipPath2">
      <use
         xlink:href="#SVGID_55_"
         style="overflow:visible"
         id="use2"
         x="0"
         y="0"
         width="100%"
         height="100%" />
    </clipPath>
    <clipPath
       id="clipPath3">
      <use
         xlink:href="#SVGID_55_"
         style="overflow:visible"
         id="use3"
         x="0"
         y="0"
         width="100%"
         height="100%" />
    </clipPath>
    <clipPath
       id="clipPath4">
      <rect
         id="use4"
         x="1.411811"
         y="1.411811"
         width="455"
         height="329"
         style="enable-background:new" />
    </clipPath>
    <clipPath
       id="SVGID_10_">
      <use
         xlink:href="#SVGID_65_"
         style="overflow:visible"
         id="use91"
         x="0"
         y="0"
         width="100%"
         height="100%" />
    </clipPath>
    <clipPath
       id="SVGID_11_">
      <use
         xlink:href="#SVGID_67_"
         style="overflow:visible"
         id="use97"
         x="0"
         y="0"
         width="100%"
         height="100%" />
    </clipPath>
    <clipPath
       id="SVGID_12_">
      <use
         xlink:href="#SVGID_69_"
         style="overflow:visible"
         id="use103"
         x="0"
         y="0"
         width="100%"
         height="100%" />
    </clipPath>
    <clipPath
       id="SVGID_13_">
      <use
         xlink:href="#SVGID_71_"
         style="overflow:visible"
         id="use109"
         x="0"
         y="0"
         width="100%"
         height="100%" />
    </clipPath>
    <clipPath
       id="SVGID_14_">
      <use
         xlink:href="#SVGID_73_"
         style="overflow:visible"
         id="use115"
         x="0"
         y="0"
         width="100%"
         height="100%" />
    </clipPath>
    <clipPath
       id="SVGID_15_">
      <use
         xlink:href="#SVGID_75_"
         style="overflow:visible"
         id="use121"
         x="0"
         y="0"
         width="100%"
         height="100%" />
    </clipPath>
    <clipPath
       id="clipPath5">
      <rect
         id="use5"
         x="1.411811"
         y="1.411811"
         width="455"
         height="329"
         style="enable-background:new" />
    </clipPath>
    <clipPath
       id="SVGID_2_">
      <use
         xlink:href="#SVGID_49_"
         style="overflow:visible"
         id="use13"
         x="0"
         y="0"
         width="100%"
         height="100%" />
    </clipPath>
    <clipPath
       id="SVGID_3_">
      <use
         xlink:href="#SVGID_51_"
         style="overflow:visible"
         id="use19"
         x="0"
         y="0"
         width="100%"
         height="100%" />
    </clipPath>
    <rect
       id="SVGID_49_"
       x="-9.3789606"
       y="1.672187"
       width="465.58179"
       height="355.47662" />
    <rect
       id="SVGID_51_"
       x="-9.5881891"
       y="1.411811"
       width="466"
       height="356" />
    <rect
       id="SVGID_53_"
       x="-9.3789606"
       y="1.672187"
       width="465.58179"
       height="355.47662" />
    <rect
       id="SVGID_55_"
       x="-9.5881891"
       y="1.411811"
       width="466"
       height="356" />
    <rect
       id="SVGID_57_"
       x="272.4118"
       y="215.4118"
       width="105"
       height="115" />
    <path
       id="SVGID_59_"
       d="M 326.3028,216.35461 315.55475,244.2193 305.35883,216.35461 H 272.8598 V 316.7193 c 0,0 64.70496,12.91989 74.80506,12.91989 5.07397,0 10.01696,-3.09708 11.64392,-6.60428 1.07898,-2.3251 15.92505,-40.32641 17.11804,-43.3822 v -63.2981 H 326.3028 Z" />
    <rect
       id="SVGID_61_"
       x="272.7868"
       y="216.35251"
       width="103.71606"
       height="140.7963" />
    <rect
       id="SVGID_63_"
       x="272.7868"
       y="216.35431"
       width="103.64038"
       height="140.79449" />
    <rect
       id="SVGID_65_"
       x="-9.3789606"
       y="1.672187"
       width="465.58179"
       height="355.47662" />
    <rect
       id="SVGID_67_"
       x="-9.5881891"
       y="1.411811"
       width="466"
       height="356" />
    <rect
       id="SVGID_69_"
       x="142.4118"
       y="154.4118"
       width="100"
       height="98" />
    <path
       id="SVGID_71_"
       d="m 191.53601,155.47791 c 8.24207,3.514 12.96558,12.5075 11.84772,21.62469 -1.19574,9.76541 -7.76331,16.2254 -17.49671,18.41071 -6.26983,1.4089 -14.72961,0.98959 -24.98303,0.98959 -7.11279,0 -18.31,55.11551 -18.31,55.11551 h 31.18409 c 25.49145,0 45.78289,-1.1041 67.91619,-13.23819 -9.78607,-24.68741 -22.81359,-59.47022 -26.56359,-65.40332 -8.35889,-13.2291 -23.22126,-17.5723 -23.22126,-17.5723 -1.5578,-0.57959 -2.25183,-0.83389 -2.31372,-0.83389 -0.0733,0 0.68952,0.33679 1.94031,0.9072" />
    <rect
       id="SVGID_73_"
       x="139.56293"
       y="114.17329"
       width="144.3797"
       height="158.71964" />
    <rect
       id="SVGID_75_"
       x="139.56293"
       y="114.1731"
       width="144.37952"
       height="158.7197" />
  </defs>
  <rect
     style="fill:#e6e6e6;stroke-width:0.999999"
     id="rect13"
     width="32"
     height="32"
     x="0"
     y="0"
     rx="2.0002"
     ry="1.9999998" />
  <g
     id="g1"
     transform="matrix(0.09079759,0,0,0.09079759,14.309821,14.157967)"
     style="stroke-width:11.0135">
    <path
       d="m -75.000011,85.574413 h 56.670107 L 43.797151,23.450854 H -12.8782 Z"
       style="fill:#f39200;fill-opacity:1;fill-rule:evenodd;stroke:none;stroke-width:96.2371"
       id="path700-4-2" />
    <path
       d="M 55.557766,-44.982491 30.97835,-20.401327 50.106063,17.139321 112.22962,-44.982491 Z"
       style="fill:#f39200;fill-opacity:1;fill-rule:evenodd;stroke:none;stroke-width:96.2371"
       id="path702-5-0" />
    <path
       d="m -38.227443,-44.994724 56.670108,-0.0052 31.665145,62.141909 H -6.5666664 Z"
       style="fill:#0066b3;fill-opacity:1;fill-rule:evenodd;stroke:none;stroke-width:96.2371"
       id="path708-3-3" />
    <path
       d="M 6.2538816,60.993249 43.797151,23.450854 75.450063,85.574413 H 18.779955 Z"
       style="fill:#0066b3;fill-opacity:1;fill-rule:evenodd;stroke:none;stroke-width:96.2371"
       id="path714-4-9" />
  </g>
</svg>
