<?xml version="1.0" encoding="UTF-8" standalone="no"?>
<!-- Created with Inkscape (http://www.inkscape.org/) -->

<svg
   width="32"
   height="32"
   viewBox="0 0 8.4666665 8.4666666"
   version="1.1"
   id="svg1"
   xmlns="http://www.w3.org/2000/svg"
   xmlns:svg="http://www.w3.org/2000/svg">
  <defs
     id="defs1" />
  <g
     id="layer1">
    <path
       id="path2"
       style="fill:#ff6200;fill-opacity:1;fill-rule:nonzero;stroke:none;stroke-width:0.0176656"
       d="M 4.4064493 0.0015502929 C 4.1481957 -0.00030970619 3.8836206 0.00066001099 3.6809122 0.0056844075 C 3.4371995 0.011524402 3.2583398 0.020035637 2.9305704 0.040307617 C 2.7789688 0.049347608 2.613545 0.062744073 2.4970052 0.074414061 C 2.4677542 0.077614058 2.4068265 0.083525938 2.3616129 0.087849934 C 2.1716553 0.10648492 1.8895748 0.14202902 1.7709513 0.162264 C 1.7458973 0.16659399 1.708974 0.17250087 1.688269 0.17569987 C 1.668034 0.17833986 1.6315865 0.18481174 1.6081706 0.18913574 C 1.5847736 0.19346574 1.5458164 0.20082544 1.5208374 0.20515543 C 1.4329895 0.22002542 1.2834939 0.25003276 1.1988932 0.27026774 C 1.1754392 0.27610773 1.1330098 0.28664337 1.1053589 0.29300537 C 1.0776699 0.29940536 1.0527293 0.30484271 1.0495483 0.30540771 C 0.89357928 0.34261997 0.7387716 0.41786072 0.61960041 0.51521402 C 0.50359333 0.60940513 0.39994893 0.76149343 0.34778238 0.91260578 C 0.33931239 0.93600276 0.33066734 0.95995951 0.32814534 0.96583251 C 0.31910535 0.98606749 0.27989919 1.1565748 0.25166422 1.2960449 C 0.24752423 1.3194229 0.23997452 1.3538618 0.23564453 1.3730428 C 0.23131453 1.3921488 0.22526889 1.4256409 0.22169189 1.4474568 C 0.21849189 1.4692538 0.21450837 1.4957802 0.21187337 1.5058512 C 0.20378338 1.5362322 0.1711594 1.7438765 0.15037842 1.894458 C 0.13016244 2.0402621 0.11707191 2.1461685 0.10541992 2.2536092 C 0.099579926 2.3062571 0.093630811 2.3576872 0.092500813 2.3678141 C 0.090910814 2.3777941 0.085837993 2.429812 0.081131998 2.4825358 C 0.076802002 2.5351847 0.070896122 2.5995615 0.067696125 2.6261963 C 0.056590136 2.7240392 0.028764151 3.1503012 0.014986165 3.4509521 C 0.0042571759 3.6738371 -0.0027314676 4.1508871 0.0010335286 4.4111002 C 0.0047935249 4.7356527 0.012699816 5.0257366 0.020153808 5.1268188 C 0.022793806 5.1677587 0.028506626 5.2541669 0.031522623 5.3185383 C 0.03472262 5.3829133 0.038706148 5.4652845 0.041341145 5.5019897 C 0.053576133 5.6860989 0.063469894 5.8068235 0.06821289 5.8451212 C 0.070852887 5.8685752 0.076807002 5.9310139 0.081131998 5.9830972 C 0.085461993 6.0352562 0.091744873 6.097647 0.09456787 6.1215901 C 0.097767867 6.1455521 0.10386775 6.1968959 0.10800374 6.2363118 C 0.12136773 6.3623892 0.13155414 6.445009 0.14004313 6.4998616 C 0.14437313 6.5291125 0.15173283 6.5790503 0.15606282 6.6114827 C 0.17149781 6.7285061 0.18961957 6.8425128 0.20928955 6.9468627 C 0.21361954 6.9702597 0.22060325 7.0097347 0.22530924 7.0347126 C 0.23434923 7.0879066 0.25484299 7.1935395 0.26975097 7.2605386 C 0.32079892 7.4952427 0.34295483 7.5656709 0.40307617 7.6811848 C 0.41964015 7.7130748 0.44103749 7.7500503 0.45061848 7.7633503 C 0.45965847 7.7767103 0.47316606 7.7960918 0.48007405 7.8062418 C 0.51041702 7.8514517 0.59703571 7.9395844 0.64492187 7.9736734 C 0.65283186 7.9794734 0.66844056 7.9904581 0.67851155 7.9984781 C 0.68924054 8.0069781 0.69907394 8.0134642 0.70176594 8.0134642 C 0.70383594 8.0134642 0.70951152 8.0174325 0.71365152 8.0217325 C 0.7344325 8.0419525 0.88036484 8.111639 0.94309488 8.130253 C 0.95476486 8.134053 0.96926127 8.138495 0.97513426 8.141105 C 0.98906325 8.147505 1.0674761 8.1673174 1.1616862 8.1886473 C 1.2026641 8.1982473 1.2446148 8.2081982 1.2547038 8.2108682 C 1.2791927 8.2172682 1.4332082 8.2479326 1.5497762 8.2692626 C 1.6167861 8.2814926 1.7474481 8.3025011 1.8293457 8.3142211 C 1.8601966 8.3183211 1.8996526 8.3239602 1.9171956 8.3271402 C 1.9815705 8.3382502 2.2477766 8.3696146 2.4148396 8.3855346 C 2.4749606 8.3913345 2.5488551 8.3983542 2.5796875 8.4015542 C 2.6297194 8.4068542 2.6806378 8.410886 2.9254028 8.428426 C 2.9621078 8.431026 3.0454628 8.436048 3.1114379 8.439278 C 3.1774129 8.442478 3.269735 8.4469733 3.3165934 8.4496133 C 3.69543 8.4714133 4.7786211 8.4714133 5.1521402 8.4496133 C 5.1989912 8.4464133 5.2913167 8.442318 5.3572957 8.439278 C 5.4706109 8.433978 5.5118809 8.4313407 5.6895751 8.4180907 C 5.9172845 8.4005807 6.252195 8.3678749 6.3655028 8.3519449 C 6.3979348 8.3472449 6.4538355 8.3397816 6.4905598 8.3348916 C 6.6262371 8.3173817 6.8125577 8.2889126 6.9189574 8.2692626 C 7.0355104 8.2479326 7.1895277 8.2172282 7.2140298 8.2108682 C 7.2240098 8.2082682 7.2660325 8.1981673 7.3070474 8.1886473 C 7.3990923 8.1678674 7.4792373 8.147465 7.4935993 8.141105 A 3.0879418 3.0879418 0 0 1 7.5468261 8.1225015 C 7.590439 8.1081915 7.7351238 8.0396636 7.7473306 8.0279336 C 7.7510906 8.0241336 7.761494 8.0163404 7.770585 8.0108804 C 7.812109 7.9848704 7.831471 7.9700396 7.869287 7.9359496 C 7.911865 7.8970796 7.9706989 7.8332254 7.9850422 7.8114094 C 7.9897522 7.8039094 8.0028103 7.7859885 8.0134642 7.7716185 C 8.0245702 7.7567486 8.0336181 7.7432494 8.0336181 7.7411295 C 8.0336181 7.7390295 8.0420566 7.7239465 8.0522216 7.7080565 C 8.0623866 7.6920566 8.0747731 7.6686433 8.0796101 7.6558633 C 8.0849101 7.6436234 8.0897524 7.6300613 8.0920124 7.6274413 C 8.1020124 7.6140813 8.1396344 7.5082446 8.1555744 7.4481241 C 8.1806244 7.3550252 8.2274079 7.1354161 8.2444579 7.031612 C 8.2487579 7.0050341 8.2535799 6.9800735 8.2553099 6.9758015 C 8.2602099 6.9641315 8.2892114 6.781639 8.3157714 6.595463 C 8.3215714 6.554485 8.3275172 6.5135182 8.3292072 6.5050292 C 8.3335072 6.4805212 8.3527066 6.3173334 8.3612466 6.2311441 C 8.3653466 6.1885662 8.3711557 6.1391332 8.3741657 6.1215901 C 8.3773657 6.1040841 8.3832416 6.0466734 8.3876016 5.9939493 C 8.3919016 5.9413014 8.3978907 5.8763777 8.4005207 5.8502888 C 8.4037207 5.8237108 8.4083728 5.7633477 8.4113728 5.7148966 C 8.4145728 5.6664646 8.4195848 5.6066061 8.4222248 5.5815714 C 8.4254248 5.5565744 8.4307739 5.4647183 8.4351439 5.3769327 C 8.4400439 5.2891038 8.4453798 5.181269 8.4485798 5.1376708 C 8.4725198 4.7508137 8.4725198 3.7352775 8.4485798 3.3362304 C 8.4459798 3.2909605 8.4412845 3.2021543 8.4382445 3.1393432 C 8.4350445 3.0765493 8.4300225 2.9936888 8.4273925 2.9558919 C 8.4241925 2.9175869 8.4173728 2.8232124 8.4113728 2.7455688 C 8.4055728 2.6678669 8.3996269 2.5949751 8.3979369 2.5833048 C 8.3963369 2.5716348 8.3917416 2.5201671 8.3876016 2.4690999 C 8.3833016 2.418052 8.3782896 2.3700819 8.3767496 2.3626465 C 8.3751496 2.3551165 8.3698904 2.3062572 8.3638305 2.2536092 C 8.3500905 2.1264211 8.3329372 1.9858704 8.3292072 1.9693888 C 8.3276072 1.9618588 8.3216314 1.9195424 8.3157714 1.8758545 C 8.2897014 1.6769051 8.2410394 1.3996408 8.1994994 1.2107788 C 8.1936994 1.1841438 8.1841221 1.1407496 8.1783121 1.1146606 C 8.1634421 1.0465397 8.1458715 0.97804869 8.1400715 0.96583251 C 8.1374715 0.95999251 8.1328294 0.94552011 8.1292195 0.93379312 C 8.1175635 0.89445726 8.0583446 0.7633673 8.0434366 0.74259032 C 8.0413666 0.73939032 8.0243945 0.71391418 8.0062295 0.68626301 C 7.9684703 0.62932297 7.8715139 0.52834021 7.8134765 0.48575846 C 7.69858 0.40114834 7.5706571 0.34379161 7.4057494 0.30334065 A 7.7893149 7.7893149 0 0 1 7.3210001 0.28215332 C 7.3013111 0.27631812 7.2619497 0.26771361 7.1773396 0.25011393 A 7.0011656 7.0011656 0 0 1 7.1055093 0.234611 C 7.0028098 0.20963272 6.668357 0.15531086 6.450769 0.12764079 C 6.40708 0.12237079 6.3642215 0.11679168 6.3551676 0.11472168 C 6.3391676 0.11152168 6.2619861 0.10322892 6.1050536 0.087849934 C 6.0613647 0.083519938 6.0009985 0.077237059 5.9717284 0.074414061 C 5.9424775 0.071214065 5.8900073 0.066758008 5.8549397 0.063562011 C 5.8197967 0.060922013 5.7624039 0.055861722 5.7272989 0.053226725 C 5.6081107 0.043062735 5.2768142 0.024038686 5.0937459 0.016019694 C 4.9168082 0.0082997015 4.665231 0.0034322911 4.4069661 0.0015502929 L 4.4064493 0.0015502929 z M 1.1880412 3.5946126 C 1.2194381 3.5914126 1.3294444 3.5965005 1.3363525 3.6013305 C 1.3395525 3.6039705 1.355062 3.6086066 1.370459 3.6121826 C 1.3992399 3.6191426 1.4399085 3.6379776 1.4701945 3.6581746 C 1.4941565 3.6741746 1.5505378 3.7345161 1.5616618 3.755843 C 1.5671218 3.766572 1.5728869 3.7764829 1.5745809 3.7780639 C 1.5762409 3.7796539 1.5805872 3.7901461 1.5849162 3.8018351 C 1.5886762 3.8135051 1.593649 3.8255741 1.596285 3.8281901 C 1.603245 3.838355 1.6112711 3.9017453 1.6112711 3.9485961 C 1.6112711 3.9943551 1.6042914 4.0482792 1.5952514 4.0679687 C 1.5665465 4.1339246 1.5523455 4.1556972 1.5161865 4.1940592 C 1.4826435 4.2286372 1.4689089 4.2388766 1.4231689 4.2612385 C 1.385899 4.2798735 1.3591538 4.2896576 1.3379028 4.2917276 C 1.3207738 4.2937976 1.3064299 4.2977459 1.3048299 4.2999959 C 1.3010699 4.3063959 1.1854573 4.3063959 1.1854573 4.2999959 C 1.1854573 4.2979259 1.1719852 4.2939776 1.1549682 4.2917276 C 1.1384043 4.2896576 1.1180112 4.2849734 1.1089762 4.2813924 A 0.54759735 0.54759735 0 0 0 1.0738362 4.266923 C 1.0636713 4.263163 1.0537131 4.2587944 1.0521321 4.2571044 C 1.0505421 4.2550344 1.0425636 4.2503984 1.0335286 4.2462524 C 1.0026777 4.2308184 0.93897334 4.1600462 0.92035725 4.1211954 C 0.91019276 4.1004334 0.90080928 4.0799362 0.89813638 4.0757202 C 0.8800662 4.0395042 0.87706108 3.8747577 0.89400227 3.8364583 C 0.89889226 3.8262943 0.90522344 3.8094162 0.90898843 3.7992512 C 0.91274843 3.7890863 0.91711696 3.7796269 0.91880695 3.7780639 C 0.92039695 3.7764739 0.9269286 3.7660197 0.93275959 3.7542928 C 0.94292458 3.7345658 1.0058711 3.6664428 1.0149251 3.6664428 C 1.0169951 3.6664428 1.0220082 3.6623678 1.0257772 3.6576578 C 1.0357572 3.6465518 1.0873798 3.6217139 1.1187947 3.6137329 C 1.1336647 3.6099729 1.1501478 3.6044773 1.1560018 3.6018473 C 1.1618418 3.5992073 1.1763712 3.5968193 1.1880412 3.5951293 L 1.1880412 3.5946126 z M 7.1344481 3.7031331 L 7.1344481 3.9718505 L 7.1344481 4.240568 L 6.101953 4.240568 L 6.101953 3.8809 L 6.1593139 3.872115 C 6.2864832 3.852445 6.3659007 3.8391225 6.3706705 3.8359415 C 6.3738705 3.8338715 6.3998139 3.829703 6.4290649 3.826123 C 6.4583158 3.822363 6.485341 3.8175299 6.487976 3.8152709 C 6.491176 3.8132009 6.5160976 3.8079999 6.5437865 3.8044189 C 6.5714565 3.8012189 6.6073503 3.795124 6.6233682 3.790983 C 6.6393682 3.787223 6.6728033 3.7812639 6.6977823 3.7780639 C 6.7228363 3.7748639 6.7477198 3.7698036 6.7535928 3.7677286 C 6.7594328 3.7650886 6.786415 3.7606426 6.812504 3.7568766 C 6.8391199 3.7536766 6.8685048 3.7487038 6.8786498 3.7455078 C 6.8886298 3.7428678 6.927211 3.7353231 6.9639159 3.7294881 C 7.0006399 3.7236481 7.0485722 3.7161998 7.0703694 3.7124348 C 7.0921663 3.7081048 7.1156546 3.7047266 7.1225626 3.7041666 L 7.1344481 3.7031331 z M 2.7248982 3.8881347 C 2.7269682 3.8891747 2.7285156 4.0340118 2.7285156 4.2095621 L 2.7285156 4.5278889 L 3.2607828 4.5278889 L 3.2607828 5.0017618 L 2.7279988 5.0017618 L 2.7300659 5.494755 C 2.7317059 6.0263113 2.7307198 6.0003634 2.7595214 6.0657795 C 2.7813184 6.1163765 2.8427347 6.1682371 2.8959472 6.181018 C 2.9049872 6.183088 2.9154454 6.1871197 2.9197184 6.1903197 C 2.9296984 6.1982297 3.145254 6.1982664 3.1548461 6.189803 C 3.1589861 6.186603 3.1780384 6.1825712 3.1982544 6.1805012 L 3.2339111 6.1763671 L 3.2339111 6.6430053 L 3.2194417 6.6497232 C 3.2062657 6.6555632 3.1453576 6.6649557 3.0613118 6.6750447 C 2.9415965 6.6889737 2.7232023 6.6904767 2.7104288 6.6771117 C 2.7072288 6.6744717 2.6987728 6.6724608 2.6907918 6.6724608 C 2.6700108 6.6724608 2.5835035 6.6565903 2.5771036 6.6517903 C 2.5739036 6.6497203 2.5599902 6.6439492 2.5450643 6.6409382 C 2.5307583 6.6371782 2.5162629 6.6326739 2.5130249 6.6306029 C 2.5103849 6.6279629 2.4978421 6.6233269 2.4861531 6.6197509 C 2.4744831 6.6159909 2.463982 6.6111106 2.462382 6.6094156 C 2.460792 6.6078256 2.4513966 6.6018137 2.4411946 6.5959797 C 2.3970357 6.5725828 2.3835156 6.5640483 2.3600626 6.5443033 C 2.3463216 6.5331973 2.3337958 6.5236327 2.3311238 6.5236327 C 2.3258538 6.5230642 2.2854961 6.4787796 2.2536092 6.4383666 C 2.2291202 6.4069506 2.1924456 6.3468013 2.1802286 6.3158935 C 2.1758987 6.3057285 2.1713944 6.2963061 2.1698934 6.2947061 C 2.1678234 6.2931161 2.1622442 6.2766801 2.1569743 6.2574991 C 2.1520843 6.2383941 2.1458446 6.2184136 2.1430216 6.2125406 C 2.1403816 6.2067006 2.1342385 6.1827109 2.1301025 6.1593139 A 2.5488946 2.5488946 0 0 0 2.1156331 6.0926513 C 2.1118731 6.0766513 2.1088749 5.8893989 2.1073649 5.5350626 L 2.1052978 5.0017618 L 1.7973063 5.0017618 L 1.7973063 4.5284057 L 2.1063314 4.5284057 L 2.1063314 3.9920043 L 2.1419881 3.988387 C 2.1616771 3.986317 2.1806372 3.9821888 2.1833292 3.9801188 C 2.1865292 3.9780488 2.2124726 3.9733645 2.2417236 3.9697835 C 2.2709746 3.9660235 2.297483 3.9604807 2.300118 3.9584147 C 2.303318 3.9563447 2.3367161 3.9507223 2.374532 3.9460123 C 2.412837 3.9405523 2.4468469 3.9348344 2.4494629 3.9325764 C 2.4526629 3.9305064 2.4701287 3.926515 2.4892537 3.924825 A 0.8783145 0.8783145 0 0 0 2.5636678 3.9129394 C 2.6206077 3.9012694 2.7201171 3.8854237 2.7248982 3.8881347 z M 4.4074828 4.4725952 C 4.4249888 4.4736252 4.4629812 4.4762528 4.4922322 4.4777628 C 4.5666961 4.4820928 4.6507366 4.4916603 4.65708 4.4963663 C 4.66028 4.4984363 4.6732656 4.501911 4.6865356 4.503601 C 4.7168785 4.508491 4.790734 4.5304895 4.8353637 4.5485595 C 4.8726337 4.5634295 4.9559268 4.6045301 4.9686889 4.6152221 C 4.9730189 4.6184221 4.9823282 4.6249412 4.9898762 4.6281412 C 4.9974062 4.6319012 5.0208667 4.6508016 5.0415527 4.6689656 C 5.0623336 4.6876006 5.0813113 4.7030886 5.0839273 4.7041056 C 5.0920173 4.7078656 5.1867634 4.8228191 5.1867634 4.8291625 C 5.1867634 4.8307525 5.1917765 4.8393443 5.1976155 4.8472493 C 5.2087215 4.8632493 5.2560099 4.9555813 5.2560099 4.9614542 C 5.2560099 4.9635242 5.2605101 4.9750194 5.2663451 4.9872924 C 5.2716151 4.9995274 5.2780388 5.0185636 5.2802978 5.0286336 C 5.2823678 5.0387985 5.2859792 5.0492427 5.2880492 5.0524047 C 5.2901192 5.0550447 5.2951323 5.0720308 5.2989013 5.0896117 C 5.3021013 5.1071167 5.3061763 5.1252056 5.3076863 5.1294026 C 5.3097563 5.1337326 5.3147211 5.1565725 5.3190551 5.1800455 C 5.3254551 5.2151695 5.3268036 5.3476503 5.3288736 5.9340046 L 5.3309407 6.6461059 L 4.7506144 6.6461059 L 4.7500976 6.5830606 C 4.749531 6.5490287 4.7480335 6.4995951 4.7459635 6.4735066 L 4.7423461 6.4254475 L 4.72736 6.4471516 C 4.702928 6.4796596 4.6223039 6.556106 4.5904174 6.5773762 C 4.5206585 6.6231922 4.5021115 6.6340025 4.4829304 6.6404215 C 4.4712605 6.6436215 4.4557612 6.6502331 4.4483072 6.6543741 C 4.4402172 6.6581341 4.420918 6.664611 4.404899 6.66781 C 4.388899 6.67157 4.3729488 6.6760743 4.3702758 6.6781453 C 4.3431518 6.6983802 4.0077617 6.6978461 3.9816691 6.6776285 C 3.9790291 6.6755585 3.9595586 6.6710622 3.9387776 6.6672932 C 3.9185616 6.6635332 3.8950836 6.6576696 3.8860677 6.6533406 C 3.8775977 6.6495806 3.8545195 6.640068 3.8359415 6.63267 A 0.74937352 0.74937352 0 0 1 3.7728963 6.6016641 A 0.8809113 0.8809113 0 0 0 3.7300048 6.5763427 C 3.7076619 6.5641077 3.7002 6.5574279 3.6395711 6.496761 C 3.5773231 6.434532 3.5692911 6.4261529 3.5692911 6.4202799 C 3.5692911 6.4182099 3.562215 6.4061039 3.554305 6.3939249 C 3.545645 6.3816899 3.5333534 6.3592513 3.5269165 6.3448323 C 3.5205165 6.3299623 3.5120779 6.3124944 3.5083129 6.3050414 C 3.5041729 6.2975114 3.4986381 6.2786847 3.4948771 6.2626667 C 3.4911171 6.2466668 3.486096 6.2307165 3.484025 6.2280435 C 3.478185 6.2205135 3.4680053 6.1447497 3.4680053 6.1117716 C 3.4680053 6.0963366 3.4655209 6.0813449 3.4623209 6.0781819 C 3.4559209 6.0717819 3.4576465 6.0504174 3.4742065 5.9221191 C 3.4774065 5.8971411 3.48195 5.8741122 3.484025 5.8714762 C 3.486095 5.8682762 3.4911553 5.8542215 3.4943603 5.8399535 C 3.5013203 5.8122646 3.5156448 5.776203 3.5305338 5.749003 C 3.5352438 5.739963 3.5418032 5.7280335 3.5450032 5.7216145 C 3.5482032 5.7146545 3.5527035 5.7092122 3.5553385 5.7092122 C 3.5574085 5.7092122 3.5589558 5.7057375 3.5589558 5.7019775 C 3.5589558 5.6961375 3.6175395 5.620002 3.6276855 5.613094 C 3.6297555 5.611504 3.6334202 5.6064834 3.6349202 5.6012084 C 3.6369902 5.5953684 3.6435536 5.5899833 3.6493896 5.5882893 C 3.6552296 5.5866993 3.6597249 5.5836414 3.6597249 5.5815714 C 3.6597249 5.5763014 3.7493279 5.50558 3.7796142 5.488037 C 3.8014112 5.474673 3.8504412 5.449779 3.9217244 5.41569 C 3.9318894 5.41042 4.0315149 5.3788514 4.0752034 5.3665974 C 4.0912034 5.3618874 4.1221351 5.35514 4.143933 5.352128 C 4.16573 5.348368 4.1867353 5.3438667 4.1894083 5.3417927 C 4.1926083 5.3397227 4.2244586 5.3351792 4.2612385 5.3319742 C 4.2979435 5.3287742 4.343344 5.3234294 4.3625244 5.3206054 C 4.4380993 5.3094994 4.703265 5.3115092 4.7314941 5.3231892 C 4.7410941 5.3273292 4.741792 5.324975 4.738212 5.279781 C 4.736142 5.253711 4.7320138 5.2317526 4.7299438 5.2301716 C 4.7273038 5.2285816 4.7242623 5.218126 4.7221923 5.207434 C 4.7184323 5.187764 4.6984059 5.1447759 4.6793009 5.11545 C 4.6670659 5.096815 4.6154107 5.0436197 4.6095377 5.0436197 C 4.6074677 5.0436197 4.5979771 5.0381824 4.5888671 5.0312174 C 4.5654701 5.0140884 4.5280593 4.9972498 4.5051513 4.9929768 C 4.4940453 4.9909068 4.4849975 4.9874754 4.4849975 4.9852254 C 4.4849975 4.9618284 4.141215 4.9581263 4.0379964 4.9810912 C 4.0246324 4.9837312 3.9937469 4.9891636 3.9687499 4.9934936 C 3.943696 4.9976336 3.9188124 5.0037777 3.9129394 5.0064127 C 3.9070994 5.0090527 3.8876479 5.0142537 3.870048 5.0172647 C 3.852542 5.0204647 3.8335273 5.024969 3.8276733 5.0276 C 3.8218333 5.03024 3.8003659 5.0361419 3.780131 5.0410359 C 3.759915 5.0457459 3.7409183 5.051135 3.7377563 5.053955 C 3.7345563 5.056025 3.7201261 5.0612311 3.7052001 5.0648071 C 3.6908942 5.0685671 3.6758528 5.0741099 3.6731608 5.0761759 C 3.6699608 5.0782459 3.6560751 5.0827422 3.6416381 5.0865112 C 3.6267681 5.0897112 3.6057453 5.0970719 3.5951293 5.1025309 C 3.5840234 5.1083708 3.5739727 5.1128661 3.5723917 5.1128661 C 3.5708017 5.1128661 3.5698079 5.0015019 3.5698079 4.8658528 C 3.5698079 4.67374 3.5712258 4.6179484 3.5765258 4.6136718 C 3.5802858 4.6104718 3.5952558 4.6055512 3.6095987 4.6017862 C 3.6244687 4.5985862 3.6390211 4.5937059 3.6416381 4.5914509 C 3.6448381 4.5893809 3.662248 4.5829091 3.681429 4.5780151 C 3.700535 4.5727451 3.7185288 4.567166 3.7212198 4.565096 C 3.7244198 4.562456 3.7408561 4.5578249 3.7579101 4.5542439 C 3.7754161 4.5504839 3.793485 4.5460279 3.797701 4.5433919 C 3.802591 4.5413219 3.8244608 4.5351828 3.8462768 4.5304728 A 1.0413853 1.0413853 0 0 0 3.8969197 4.5191039 C 3.9027597 4.5174439 3.9327303 4.5130977 3.9635823 4.5087687 C 3.9944903 4.5046287 4.0269426 4.4984845 4.0354125 4.4958495 C 4.0663205 4.4862496 4.3446813 4.4688682 4.4074828 4.4725952 z M 0.93534341 4.5278889 L 1.5580444 4.5278889 L 1.5580444 5.5872558 L 1.5580444 6.6461059 L 0.93534341 6.6461059 L 0.93534341 4.5278889 z M 5.6384154 4.5278889 L 6.2616332 4.5278889 L 6.2616332 5.187797 C 6.2616332 5.817821 6.2643412 5.939713 6.2771361 5.9567423 C 6.2797761 5.9593823 6.2826376 5.9697757 6.2848876 5.9799967 C 6.2924176 6.0198646 6.3272144 6.0781154 6.3665364 6.117456 C 6.3873173 6.1387639 6.4107588 6.1572249 6.4182128 6.1593139 C 6.4263028 6.1609739 6.4321654 6.1644786 6.4321654 6.1665486 C 6.4321654 6.1686186 6.4506736 6.1762608 6.4735066 6.1836018 C 6.5075955 6.1943308 6.5257325 6.1960041 6.5789265 6.1960041 C 6.6161965 6.1960041 6.6484704 6.1935197 6.6559244 6.1903197 C 6.6628844 6.1865597 6.6792877 6.1811606 6.6926147 6.1774006 C 6.7059786 6.1736406 6.7298984 6.1627902 6.7458414 6.1520792 C 6.7756383 6.1329732 6.8311075 6.0815972 6.8311075 6.0730142 C 6.8311075 6.0703742 6.8386572 6.0589108 6.8471272 6.0476928 C 6.8561672 6.0360228 6.8631469 6.0245188 6.8631469 6.0213378 C 6.8631469 6.0181378 6.8680272 6.0065953 6.8734822 5.9960164 C 6.8793222 5.9854754 6.8853638 5.9674255 6.8874348 5.9562255 C 6.8890248 5.9445555 6.8925463 5.9325615 6.8951863 5.9298705 C 6.9085503 5.9127415 6.9106892 5.8057734 6.9106892 5.1815958 L 6.9106892 4.5278889 L 7.5333902 4.5278889 L 7.5333902 6.6455891 L 7.2388345 6.6455891 C 7.0084768 6.6455891 6.9422735 6.6442412 6.9391112 6.6388712 C 6.9370412 6.6356712 6.9345568 6.5852254 6.9334268 6.5272501 C 6.9323668 6.4697831 6.9293057 6.4223469 6.9272257 6.4223469 C 6.9251557 6.4223469 6.9191562 6.4289103 6.9127563 6.4368163 C 6.8829403 6.4772673 6.8357887 6.5229288 6.7623778 6.5835774 C 6.7516488 6.5920474 6.7301663 6.6035696 6.6822794 6.6269856 C 6.6604634 6.6375266 6.6365066 6.6501303 6.6290526 6.6538573 C 6.6215227 6.6576173 6.6011774 6.6630124 6.5835774 6.6667764 C 6.5660714 6.6705364 6.5505542 6.6753695 6.5489542 6.6776285 C 6.5436842 6.6855385 6.4493063 6.6936482 6.3562011 6.6936482 C 6.2647022 6.6936482 6.1904505 6.6871802 6.1686156 6.6781453 C 6.1627756 6.6755053 6.1423214 6.6694104 6.1231404 6.6647094 C 6.1040344 6.6599994 6.0865305 6.6535315 6.0833495 6.6512735 C 6.0807095 6.6492035 6.068196 6.6434807 6.055961 6.6399047 C 6.043161 6.6367047 6.0327066 6.6323412 6.0327066 6.6300862 C 6.0327066 6.6280162 6.0232643 6.6228151 6.0115193 6.6192341 C 5.9998493 6.6154741 5.9903319 6.6111578 5.9903319 6.6088988 C 5.9903319 6.6068288 5.9843728 6.6022803 5.9774128 6.5990803 C 5.9316629 6.5783143 5.8282862 6.480988 5.7846598 6.4182128 C 5.7580248 6.3799078 5.7166486 6.3032286 5.7081786 6.2750691 C 5.7049786 6.2639631 5.6985068 6.2474416 5.6947428 6.2388956 C 5.6909828 6.2298556 5.6852076 6.2104231 5.6818237 6.1960041 C 5.6786237 6.1811342 5.6737906 6.1656554 5.6709716 6.1603474 C 5.6683316 6.1554574 5.6633205 6.1306068 5.6601196 6.1045369 C 5.6569196 6.0789939 5.651429 6.053049 5.648234 6.047176 C 5.643344 6.039266 5.6410957 5.8490706 5.6399657 5.2818481 L 5.6384154 4.5278889 z M 4.6193562 5.6993936 L 4.6188395 5.6999104 C 4.5481025 5.6996826 4.4596042 5.7011413 4.4229858 5.7045613 C 4.3969908 5.7072013 4.3704444 5.7115598 4.3645914 5.7143798 C 4.3587514 5.7175798 4.3398167 5.7221686 4.3222167 5.7257486 C 4.3052758 5.7289486 4.2822088 5.735512 4.2715738 5.740218 C 4.1917259 5.774796 4.1529225 5.7978142 4.1263631 5.8254841 C 4.1008201 5.8521191 4.0752663 5.9016223 4.0710693 5.9324543 C 4.0699593 5.9429953 4.0663378 5.9571464 4.0633178 5.9629434 C 4.0574778 5.9751784 4.0594022 6.0126942 4.0690022 6.0621622 C 4.0795432 6.1159211 4.1222308 6.1815016 4.1599527 6.2011718 C 4.2270197 6.2357498 4.2394718 6.2407741 4.2767415 6.246647 C 4.3437334 6.256627 4.4718025 6.2513707 4.4994669 6.2363118 C 4.5041769 6.2336718 4.5237511 6.2247039 4.5428751 6.216158 C 4.5620561 6.207118 4.5869587 6.1926368 4.5986856 6.1836018 C 4.6103556 6.1745618 4.623821 6.1635576 4.628658 6.1598306 C 4.6589439 6.1369987 4.7147573 6.0446568 4.7221923 6.0063516 C 4.7237823 5.9967517 4.7282941 5.9853032 4.7314941 5.9810302 C 4.7352541 5.9763202 4.7375988 5.9277448 4.7387288 5.8399535 L 4.7407958 5.7055948 L 4.7123738 5.7024942 C 4.6978798 5.7006842 4.6618022 5.6995736 4.6193562 5.6993936 z " />
  </g>
</svg>
