<?xml version="1.0" encoding="UTF-8" standalone="no"?>
<!-- Created with Inkscape (http://www.inkscape.org/) -->

<svg
   width="32"
   height="32"
   viewBox="0 0 8.4666665 8.4666666"
   version="1.1"
   id="svg1"
   sodipodi:docname="safra.svg"
   inkscape:version="1.3.2 (091e20e, 2023-11-25, custom)"
   xmlns:inkscape="http://www.inkscape.org/namespaces/inkscape"
   xmlns:sodipodi="http://sodipodi.sourceforge.net/DTD/sodipodi-0.dtd"
   xmlns="http://www.w3.org/2000/svg"
   xmlns:svg="http://www.w3.org/2000/svg">
  <sodipodi:namedview
     id="namedview1"
     pagecolor="#505050"
     bordercolor="#eeeeee"
     borderopacity="1"
     inkscape:showpageshadow="0"
     inkscape:pageopacity="0"
     inkscape:pagecheckerboard="0"
     inkscape:deskcolor="#505050"
     inkscape:document-units="px"
     inkscape:zoom="1"
     inkscape:cx="-170"
     inkscape:cy="-224.5"
     inkscape:window-width="1920"
     inkscape:window-height="1009"
     inkscape:window-x="-8"
     inkscape:window-y="-8"
     inkscape:window-maximized="1"
     inkscape:current-layer="layer1" />
  <defs
     id="defs1" />
  <g
     inkscape:label="Camada 1"
     inkscape:groupmode="layer"
     id="layer1">
    <rect
       style="fill:#e6e6e6;fill-opacity:1;stroke-width:0.264583"
       id="rect4"
       width="8.4666662"
       height="8.4666662"
       x="-2.5715385e-15"
       y="0"
       rx="0.52921957"
       ry="0.52916664" />
    <path
       id="Fill-12"
       class="st0"
       d="m 4.7618851,4.5937441 c -0.01153,-0.269106 -0.111487,-0.43057 -0.21144,-0.528601 h 0.0019 c 0.130709,0 0.315239,0.115331 0.315239,0.299861 -0.0019,0.101876 -0.03652,0.176841 -0.105721,0.22874 z m -0.444025,0.515146 v -0.257573 c 0.09419,-0.0019 0.180686,-0.01153 0.257573,-0.02691 -0.03652,0.174919 -0.134553,0.259496 -0.257573,0.284483 z m -0.359449,-0.299861 c 0.04805,0.0173 0.109565,0.03075 0.188375,0.03844 v 0.257573 c -0.09611,-0.0346 -0.176842,-0.130709 -0.188375,-0.296017 z m -0.0019,-0.743886 h 0.188374 v 0.622788 c -0.07112,-0.0096 -0.13263,-0.02691 -0.188374,-0.04998 z m -0.296017,-0.417115 c 0,-0.09419 0.04229,-0.174919 0.124942,-0.232584 v 0.455558 c -0.07881,-0.04421 -0.124942,-0.130709 -0.124942,-0.222974 z m 0.486313,-0.718897 v 0.234506 c -0.06343,0.0019 -0.124942,0.0077 -0.182607,0.01922 0.02114,-0.115331 0.0865,-0.21144 0.182607,-0.253728 z m 0.367138,0.29025 c -0.0519,-0.01922 -0.117253,-0.03652 -0.196063,-0.04805 v -0.251806 c 0.09227,0.03075 0.169153,0.124942 0.196063,0.299861 z m -0.196063,0.682376 v -0.572812 c 0.07112,0.0096 0.14032,0.02691 0.205674,0.0519 -0.0077,0.24604 -0.132631,0.476703 -0.205674,0.520913 z m -0.361371,-0.559356 c 0.05574,-0.01346 0.119176,-0.02114 0.188374,-0.02307 v 0.590112 h -0.188374 z m 0.636244,1.324386 c -0.07497,0.0173 -0.16723,0.02691 -0.274873,0.02883 v -0.628555 c 0.07881,0.0173 0.274873,0.209518 0.274873,0.582422 z m -0.0692,-0.757341 h -0.0077 c 0.0865,-0.107643 0.153775,-0.276795 0.174919,-0.449792 0.05959,0.03652 0.115331,0.07881 0.159542,0.124942 0.02307,0.02307 0.0346,0.0346 0.0519,0.0346 0.0346,0 0.0519,-0.02883 0.0346,-0.05767 -0.04613,-0.07496 -0.06343,-0.138398 -0.06343,-0.219129 0,-0.0519 0.0173,-0.09803 0.02883,-0.126865 0.01153,-0.02883 0,-0.05767 -0.0346,-0.05767 -0.02883,0 -0.0346,0.02307 -0.04613,0.04037 -0.02114,0.03844 -0.06535,0.07304 -0.128787,0.07496 -0.02499,-0.313317 -0.182607,-0.465169 -0.345993,-0.507457 0.05767,-0.14032 0.203752,-0.226818 0.394048,-0.267184 0.02883,-0.0058 0.0519,-0.0173 0.0519,-0.04037 0,-0.02883 -0.02307,-0.04037 -0.0519,-0.04037 -0.06343,0 -0.153775,0.0346 -0.22874,0.05767 -0.113409,0.0346 -0.211441,0.05767 -0.297939,0.05767 -0.182608,0 -0.342149,-0.08073 -0.394048,-0.08073 -0.02307,0 -0.04037,0.0173 -0.04037,0.04037 0,0.0173 0.01153,0.0346 0.04613,0.04613 0.151853,0.04998 0.251807,0.128786 0.294095,0.236429 -0.09034,0.03268 -0.165308,0.101875 -0.217207,0.190296 -0.06151,-0.124942 -0.138398,-0.178763 -0.249884,-0.178763 -0.109565,0 -0.194141,0.08073 -0.194141,0.178763 0,0.0692 0.04613,0.121098 0.09803,0.121098 0.02307,0 0.0346,-0.01153 0.0346,-0.02883 0,-0.02307 -0.01153,-0.02883 -0.01153,-0.06343 0,-0.0346 0.02883,-0.06343 0.07497,-0.06343 0.0692,0 0.130708,0.0692 0.130708,0.259495 v 0.04805 c -0.180685,0.08073 -0.297939,0.222973 -0.297939,0.415192 0,0.197985 0.128787,0.345993 0.297939,0.394048 v 0.488235 c -0.128786,-0.103798 -0.199907,-0.240273 -0.246039,-0.338304 -0.01153,-0.02307 -0.02307,-0.0519 -0.0519,-0.0519 -0.0346,0 -0.04613,0.0346 -0.02883,0.07496 0.0173,0.04037 0.02883,0.103798 0.02883,0.161464 0,0.0692 -0.02307,0.13263 -0.0692,0.178763 -0.02307,0.02307 -0.04037,0.04037 -0.04037,0.05767 0,0.02307 0.0173,0.0346 0.0346,0.0346 0.0346,0 0.07497,-0.04037 0.148009,-0.04037 0.04613,0 0.103798,0.02307 0.194141,0.08073 l 0.02883,0.0173 v 0.149931 c 0,0.08073 -0.0346,0.132631 -0.103798,0.132631 -0.04613,0 -0.07496,-0.0346 -0.07496,-0.08073 0,-0.0346 0.02307,-0.04613 0.02307,-0.06343 0,-0.0173 -0.01153,-0.02883 -0.0346,-0.02883 -0.0346,0 -0.09227,0.0519 -0.09227,0.138397 0,0.08073 0.05767,0.178764 0.176841,0.178764 0.06728,0 0.132631,-0.02114 0.192219,-0.08073 0.05574,0.09034 0.151852,0.171075 0.263339,0.20183 -0.03075,0.151852 -0.134553,0.278717 -0.282561,0.278717 -0.07496,0 -0.113409,-0.04037 -0.113409,-0.09226 0,-0.04037 0.02883,-0.06343 0.0519,-0.07497 0.02883,-0.01153 0.0519,-0.0173 0.0519,-0.0519 0,-0.0173 -0.01153,-0.04037 -0.0692,-0.04037 -0.103798,0 -0.188374,0.09226 -0.188374,0.20183 0,0.121098 0.0865,0.236429 0.26334,0.236429 0.151852,0 0.282561,-0.07496 0.365215,-0.169152 0.09803,0.08073 0.24604,0.146086 0.321005,0.146086 0.02307,0 0.04613,-0.01153 0.04613,-0.0346 0,-0.02307 -0.02307,-0.04037 -0.04613,-0.0519 -0.130709,-0.0692 -0.217207,-0.16723 -0.217207,-0.340227 v -0.0019 c 0.203752,-0.03844 0.39597,-0.205674 0.438259,-0.494002 0.186452,-0.08073 0.282561,-0.217207 0.282561,-0.405581 0.0019,-0.271028 -0.249884,-0.455558 -0.513224,-0.455558 z m 0.972627,1.630014 c -0.199908,0 -0.332539,-0.115331 -0.332539,-0.288328 0,-0.144164 0.09803,-0.259495 0.211441,-0.259495 0.04613,0 0.0865,0.0173 0.0865,0.06343 0,0.02883 -0.01153,0.0519 0.0173,0.0519 0.0173,0 0.0346,-0.0173 0.0346,-0.06343 0,-0.05767 -0.0519,-0.103798 -0.124942,-0.103798 h -0.0173 c 0.01153,-0.02307 0.01153,-0.04613 0.01153,-0.0519 0,-0.0519 -0.04037,-0.08073 -0.08073,-0.08073 -0.04037,0 -0.08073,0.02307 -0.08073,0.0519 0,0.01153 0.0058,0.0173 0.0173,0.0173 0.0173,0 0.02307,-0.0173 0.0519,-0.0173 0.02307,0 0.04037,0.01153 0.04037,0.04037 0,0.04037 -0.0346,0.05767 -0.06343,0.07496 -0.09227,0.0519 -0.153775,0.155697 -0.153775,0.276795 0,0.161463 0.09226,0.265262 0.222974,0.311394 l -0.0865,0.132631 c -0.113409,0 -0.171075,0.0865 -0.274873,0.271028 -0.01153,-0.04613 -0.04613,-0.08073 -0.103798,-0.08073 -0.06343,0 -0.103798,0.04613 -0.103798,0.109565 0,0.0173 0.01153,0.02883 0.02307,0.02883 0.0173,0 0.02883,-0.01153 0.02883,-0.02883 0,-0.02883 0.0173,-0.05767 0.0519,-0.05767 0.04037,0 0.05767,0.02883 0.05767,0.06343 0,0.04036 -0.0058,0.06343 -0.0346,0.109564 -0.119175,0.196063 -0.286406,0.294095 -0.428647,0.294095 -0.124943,0 -0.199908,-0.07497 -0.199908,-0.149931 0,-0.0692 0.04037,-0.126864 0.109565,-0.126864 0.04613,0 0.07496,0.02883 0.07496,0.0692 0,0.0346 -0.02883,0.0346 -0.02883,0.0519 0,0.01153 0.01153,0.0173 0.02307,0.0173 0.0346,0 0.05767,-0.04037 0.05767,-0.08073 0,-0.06343 -0.0519,-0.109564 -0.124942,-0.109564 -0.0692,0 -0.124942,0.04613 -0.142242,0.09226 -0.0173,-0.04613 -0.07497,-0.09226 -0.142242,-0.09226 -0.07497,0 -0.124942,0.04613 -0.124942,0.109564 0,0.04037 0.02307,0.08073 0.05767,0.08073 0.01153,0 0.02307,-0.0058 0.02307,-0.0173 0,-0.0173 -0.02883,-0.0173 -0.02883,-0.0519 0,-0.04037 0.02883,-0.0692 0.07497,-0.0692 0.0692,0 0.109564,0.05767 0.109564,0.126864 0,0.07496 -0.07497,0.149931 -0.199907,0.149931 -0.142242,0 -0.309472,-0.09803 -0.428648,-0.294095 -0.02883,-0.04613 -0.0346,-0.0692 -0.0346,-0.109564 0,-0.0346 0.0173,-0.06343 0.05767,-0.06343 0.0346,0 0.0519,0.02883 0.0519,0.05767 0,0.0173 0.01153,0.02883 0.02883,0.02883 0.01153,0 0.02307,-0.01153 0.02307,-0.02883 0,-0.06343 -0.04037,-0.109565 -0.103799,-0.109565 -0.05767,0 -0.09226,0.0346 -0.103798,0.08073 -0.103798,-0.18453 -0.159541,-0.271028 -0.274872,-0.271028 l -0.0865,-0.132631 c 0.130709,-0.04613 0.222974,-0.149931 0.222974,-0.311394 0,-0.121098 -0.06343,-0.224896 -0.153775,-0.276795 -0.02883,-0.0173 -0.06343,-0.0346 -0.06343,-0.07496 0,-0.02883 0.0173,-0.04037 0.04037,-0.04037 0.02883,0 0.0346,0.0173 0.0519,0.0173 0.01153,0 0.0173,-0.0058 0.0173,-0.0173 0,-0.02883 -0.04037,-0.0519 -0.08073,-0.0519 -0.04037,0 -0.08073,0.02883 -0.08073,0.08073 0,0.0058 0,0.02883 0.01153,0.0519 h -0.0173 c -0.07497,0 -0.124942,0.04613 -0.124942,0.103798 0,0.04613 0.0173,0.06343 0.0346,0.06343 0.02883,0 0.0173,-0.02307 0.0173,-0.0519 0,-0.04613 0.04037,-0.06343 0.0865,-0.06343 0.113409,0 0.21144,0.115331 0.21144,0.259495 0,0.172997 -0.130709,0.288328 -0.332538,0.288328 -0.234507,0 -0.411348,-0.172997 -0.411348,-0.417115 0,-0.236429 0.136475,-0.399814 0.292172,-0.543978 l 0.130709,-0.126865 c 0.165308,-0.155697 0.234507,-0.317161 0.234507,-0.520912 0,-0.21913 -0.130709,-0.463247 -0.405582,-0.584345 0.05767,-0.0173 0.09226,-0.07496 0.09226,-0.144164 0,-0.04613 -0.0173,-0.07497 -0.0173,-0.109565 0,-0.0692 0.04037,-0.109564 0.09803,-0.109564 0.0519,0 0.0865,0.04037 0.0865,0.08073 0,0.0346 -0.02307,0.06343 -0.06343,0.06343 -0.0173,0 -0.02883,0 -0.02883,0.0173 0,0.0173 0.0173,0.02307 0.04037,0.02307 0.0692,0 0.103798,-0.05767 0.103798,-0.0865 0.01153,0.0058 0.02307,0.01153 0.04037,0.01153 0.04036,0 0.0692,-0.02883 0.0692,-0.0692 0,-0.01153 -0.0058,-0.02883 -0.02307,-0.02883 -0.01153,0 -0.0173,0.01153 -0.0173,0.02307 0,0.0173 -0.01153,0.02883 -0.02883,0.02883 -0.02307,0 -0.04037,-0.0173 -0.0519,-0.04037 -0.02307,-0.04037 -0.0692,-0.07496 -0.124942,-0.07496 -0.07496,0 -0.130708,0.0519 -0.142241,0.121097 -0.0346,-0.0346 -0.07497,-0.0692 -0.130709,-0.103798 0.04613,-0.02883 0.0865,-0.0519 0.130709,-0.0865 0.0692,-0.0519 0.130708,-0.109565 0.199907,-0.18453 l 0.315239,-0.345993 c 0.274872,-0.305628 0.451713,-0.382516 0.622788,-0.382516 0.148008,0 0.222974,0.07497 0.222974,0.161464 0,0.06343 -0.02691,0.111487 -0.0692,0.134553 -0.02499,-0.02499 -0.04229,-0.05959 -0.04998,-0.09995 -0.0058,-0.02883 -0.01153,-0.02883 -0.0173,-0.02883 -0.01153,0 -0.01153,0.01153 -0.01153,0.02307 0,0.04998 0.01153,0.08842 0.03075,0.121098 -0.0058,0 -0.01346,0.0019 -0.01922,0.0019 -0.05767,0 -0.09227,-0.02883 -0.09227,-0.06343 0,-0.0058 0,-0.0173 0.01153,-0.02883 0.01153,-0.01153 0.0058,-0.0173 0,-0.0173 -0.02307,0 -0.04613,0.02883 -0.04613,0.06343 0,0.04037 0.0346,0.09803 0.130709,0.09803 0.01346,0 0.03268,-0.0019 0.05382,-0.0077 0.03268,0.02499 0.07112,0.03652 0.111487,0.03652 0.04037,0 0.07881,-0.01153 0.111487,-0.03652 0.02114,0.0058 0.04037,0.0077 0.05382,0.0077 0.09803,0 0.130708,-0.05767 0.130708,-0.09803 0,-0.0346 -0.02307,-0.06343 -0.04613,-0.06343 -0.0058,0 -0.01153,0.0058 0,0.0173 0.01153,0.01153 0.01153,0.02307 0.01153,0.02883 0,0.0346 -0.0346,0.06343 -0.09227,0.06343 -0.0058,0 -0.01346,0 -0.01922,-0.0019 0.01922,-0.03076 0.03075,-0.07112 0.03075,-0.121098 0,-0.01153 0,-0.02307 -0.01153,-0.02307 -0.0058,0 -0.01153,0 -0.0173,0.02883 -0.0077,0.04037 -0.02499,0.07497 -0.04998,0.09995 -0.04229,-0.02307 -0.0692,-0.07112 -0.0692,-0.134553 0,-0.0865 0.07497,-0.161464 0.222974,-0.161464 0.171074,0 0.347915,0.07497 0.622788,0.382516 l 0.315239,0.345993 c 0.06343,0.07496 0.130708,0.132631 0.199907,0.18453 0.04613,0.0346 0.0865,0.05767 0.130709,0.0865 -0.05767,0.0346 -0.09803,0.0692 -0.130709,0.103798 -0.01153,-0.0692 -0.0692,-0.121097 -0.142242,-0.121097 -0.05767,0 -0.103798,0.0346 -0.124942,0.07496 -0.01153,0.02307 -0.02883,0.04037 -0.0519,0.04037 -0.0173,0 -0.02883,-0.01153 -0.02883,-0.02883 0,-0.01153 -0.0058,-0.02307 -0.0173,-0.02307 -0.0173,0 -0.02307,0.0173 -0.02307,0.02883 0,0.04037 0.02883,0.0692 0.0692,0.0692 0.0173,0 0.02883,-0.0058 0.04037,-0.01153 0,0.02883 0.0346,0.0865 0.103798,0.0865 0.02307,0 0.04037,-0.0058 0.04037,-0.02307 0,-0.0173 -0.01153,-0.0173 -0.02883,-0.0173 -0.04037,0 -0.06343,-0.02307 -0.06343,-0.06343 0,-0.04037 0.0346,-0.08073 0.0865,-0.08073 0.05767,0 0.09803,0.04037 0.09803,0.109564 0,0.0346 -0.0173,0.06343 -0.0173,0.109565 0,0.0692 0.0346,0.126864 0.09227,0.144164 -0.274873,0.121098 -0.405581,0.365215 -0.405581,0.584345 0,0.201829 0.0692,0.365215 0.234507,0.520912 l 0.130708,0.126865 c 0.153775,0.144164 0.292173,0.305627 0.292173,0.543978 -0.01153,0.244118 -0.188375,0.417115 -0.422881,0.417115 z m -1.264799,1.076424 c -0.04613,-0.09226 -0.09803,-0.14993 -0.119176,-0.178763 0.05767,-0.02307 0.09803,-0.06343 0.119176,-0.109565 0.02307,0.04613 0.06343,0.0865 0.119175,0.109565 -0.02114,0.02691 -0.07304,0.08458 -0.119175,0.178763 z m 0.05767,-4.338375 c -0.0173,0.0077 -0.03652,0.01153 -0.05767,0.01153 -0.02114,0 -0.04037,-0.0038 -0.05767,-0.01153 0.02307,-0.0173 0.04229,-0.04229 0.05767,-0.07881 0.01538,0.03652 0.03652,0.06151 0.05767,0.07881 z m 1.708824,2.596874 c -0.0346,0 -0.06343,0.0173 -0.07496,0.04037 -0.04613,-0.103798 -0.09227,-0.201829 -0.292172,-0.388281 0.01153,0.0058 0.0519,0.01153 0.08073,0.01153 0.06343,0 0.130709,-0.0173 0.171075,-0.05767 0.01153,0.04037 0.04613,0.06343 0.0865,0.06343 0.06343,0 0.0865,-0.04037 0.0865,-0.0865 0,-0.0173 -0.0058,-0.0346 -0.02307,-0.0346 -0.0346,0 -0.0058,0.0692 -0.06343,0.0692 -0.02307,0 -0.04037,-0.0173 -0.04037,-0.04613 0,-0.02883 0.0173,-0.06343 0.0173,-0.103798 0,-0.09227 -0.05767,-0.155698 -0.124942,-0.172997 -0.04037,-0.01153 -0.06343,-0.04037 -0.06343,-0.07496 0,-0.04613 0.0346,-0.0519 0.05767,-0.0519 0.02307,0 0.04037,0.0058 0.04037,-0.01153 0,-0.0173 -0.0173,-0.02883 -0.0519,-0.02883 -0.04037,0 -0.09803,0.02883 -0.09803,0.09226 0,0.02307 0.0058,0.04613 0.02883,0.0692 -0.0519,0.01153 -0.09803,0.0519 -0.09803,0.115331 0,0.04037 0.01153,0.08073 0.04037,0.08073 0.0346,0 0.0058,-0.02883 0.0058,-0.07497 0,-0.0519 0.04613,-0.07496 0.09226,-0.07496 0.06343,0 0.119176,0.05767 0.119176,0.132631 0,0.0865 -0.0692,0.144164 -0.176841,0.144164 -0.06343,0 -0.153775,-0.01153 -0.228741,-0.09803 -0.119175,-0.132631 -0.188374,-0.247962 -0.188374,-0.45748 0,-0.265262 0.188374,-0.497847 0.463247,-0.572812 0.05767,-0.0173 0.103798,-0.0692 0.103798,-0.138397 0,-0.05767 -0.0346,-0.103798 -0.09227,-0.103798 -0.02307,0 -0.04037,0.0058 -0.04037,0.02307 0,0.0173 0.0173,0.0173 0.02883,0.0173 0.02307,0 0.0519,0.02307 0.0519,0.06343 0,0.05767 -0.04613,0.09226 -0.09803,0.09226 -0.06343,0 -0.103798,-0.04613 -0.103798,-0.109565 0,-0.121098 0.142241,-0.20183 0.251806,-0.253729 -0.09803,-0.04613 -0.130709,-0.06343 -0.205674,-0.121097 -0.0173,-0.0173 -0.02307,-0.0346 -0.02307,-0.05767 0,-0.02883 0.0173,-0.0519 0.04037,-0.0519 0.0173,0 0.02883,0.01153 0.02883,0.02883 0,0.0173 -0.01153,0.0173 -0.01153,0.02883 0,0.01153 0.0058,0.0173 0.0173,0.0173 0.01153,0 0.04037,-0.01153 0.04037,-0.05767 0,-0.0346 -0.02307,-0.0692 -0.07496,-0.0692 -0.0519,0 -0.09227,0.04037 -0.09227,0.09803 -0.04037,-0.0346 -0.0865,-0.07496 -0.124942,-0.121097 l -0.182608,-0.20183 c -0.0519,-0.05767 -0.02307,-0.16723 0.0519,-0.16723 0.04037,0 0.05767,0.02883 0.05767,0.0519 0,0.0519 -0.0519,0.02883 -0.0519,0.05767 0,0.01153 0.0058,0.02307 0.02307,0.02307 0.04037,0 0.08073,-0.02883 0.08073,-0.0865 0,-0.0519 -0.04613,-0.09803 -0.109565,-0.09803 -0.07496,0 -0.124942,0.05767 -0.124942,0.138397 l -0.05767,-0.06343 c -0.251806,-0.276795 -0.45748,-0.399815 -0.657388,-0.399815 -0.07496,0 -0.142241,0.02307 -0.182607,0.0519 -0.0346,-0.04037 -0.0519,-0.0692 -0.07497,-0.103798 -0.02307,0.0346 -0.04036,0.06343 -0.07496,0.103798 -0.04037,-0.02883 -0.109564,-0.0519 -0.182608,-0.0519 -0.199907,0 -0.405581,0.121098 -0.657387,0.399815 l -0.05767,0.06343 c 0,-0.08073 -0.0519,-0.138397 -0.124942,-0.138397 -0.06343,0 -0.109565,0.04613 -0.109565,0.09803 0,0.05767 0.04037,0.0865 0.08073,0.0865 0.0173,0 0.02307,-0.01153 0.02307,-0.02307 0,-0.02883 -0.0519,-0.0058 -0.0519,-0.05767 0,-0.02307 0.0173,-0.0519 0.05767,-0.0519 0.07496,0 0.103798,0.109565 0.0519,0.16723 l -0.182608,0.20183 c -0.04037,0.04613 -0.0865,0.0865 -0.124942,0.121097 0,-0.05767 -0.04037,-0.09803 -0.09227,-0.09803 -0.0519,0 -0.07496,0.0346 -0.07496,0.0692 0,0.04613 0.02883,0.05767 0.04037,0.05767 0.01153,0 0.0173,-0.0058 0.0173,-0.0173 0,-0.01153 -0.01153,-0.01153 -0.01153,-0.02883 0,-0.0173 0.01153,-0.02883 0.02883,-0.02883 0.02307,0 0.04037,0.02307 0.04037,0.0519 0,0.02307 -0.0058,0.04037 -0.02307,0.05767 -0.0692,0.0692 -0.109565,0.07497 -0.205674,0.121097 0.109565,0.0519 0.251806,0.132631 0.251806,0.253729 0,0.06343 -0.04037,0.109565 -0.103798,0.109565 -0.0519,0 -0.09803,-0.0346 -0.09803,-0.09226 0,-0.04037 0.02883,-0.06343 0.0519,-0.06343 0.01153,0 0.02883,0 0.02883,-0.0173 0,-0.0173 -0.0173,-0.02307 -0.04037,-0.02307 -0.05767,0 -0.09227,0.04613 -0.09227,0.103798 0,0.0692 0.04613,0.121097 0.103798,0.138397 0.274872,0.08073 0.463247,0.305628 0.463247,0.572812 0,0.207596 -0.07497,0.31716 -0.188375,0.45748 -0.07497,0.0865 -0.165308,0.09803 -0.22874,0.09803 -0.109564,0 -0.176841,-0.05767 -0.176841,-0.144164 0,-0.07497 0.05767,-0.132631 0.119176,-0.132631 0.04613,0 0.09227,0.02307 0.09227,0.07496 0,0.04613 -0.02883,0.07497 0.0058,0.07497 0.02883,0 0.04037,-0.04037 0.04037,-0.08073 0,-0.06343 -0.04613,-0.103798 -0.09803,-0.115331 0.02307,-0.02307 0.02883,-0.04613 0.02883,-0.0692 0,-0.06343 -0.05767,-0.09226 -0.09803,-0.09226 -0.0346,0 -0.0519,0.01153 -0.0519,0.02883 0,0.0173 0.0173,0.01153 0.04037,0.01153 0.02307,0 0.05767,0.0058 0.05767,0.0519 0,0.0346 -0.02307,0.06343 -0.06343,0.07496 -0.0692,0.0173 -0.124942,0.08073 -0.124942,0.172997 0,0.04037 0.0173,0.07496 0.0173,0.103798 0,0.02883 -0.0173,0.04613 -0.04037,0.04613 -0.05767,0 -0.02883,-0.0692 -0.06343,-0.0692 -0.0173,0 -0.02307,0.0173 -0.02307,0.0346 0,0.04613 0.02307,0.0865 0.0865,0.0865 0.04037,0 0.07497,-0.02307 0.0865,-0.06343 0.04037,0.04037 0.109564,0.05767 0.171074,0.05767 0.02883,0 0.0692,-0.0058 0.08073,-0.01153 -0.199907,0.184529 -0.24604,0.282561 -0.292172,0.388281 -0.01153,-0.02307 -0.04037,-0.04037 -0.07497,-0.04037 -0.05767,0 -0.0865,0.0346 -0.0865,0.0865 0,0.01153 0,0.04613 0.02883,0.04613 0.02307,0 0.01153,-0.02307 0.01153,-0.04037 0,-0.02307 0.0173,-0.04037 0.04613,-0.04037 0.04613,0 0.05767,0.04037 0.04613,0.103798 -0.0058,0.02883 -0.0058,0.06343 -0.0058,0.09226 0,0.271029 0.199907,0.469014 0.463247,0.469014 0.04037,0 0.07496,-0.0058 0.113409,-0.01153 l 0.08073,0.121097 c -0.05767,0.0173 -0.09803,0.0692 -0.09803,0.126865 0,0.07496 0.05767,0.132631 0.130708,0.132631 0.04613,0 0.08073,-0.02307 0.08073,-0.04613 0,-0.0173 -0.01153,-0.02307 -0.02307,-0.02307 -0.0173,0 -0.0173,0.0173 -0.05767,0.0173 -0.04613,0 -0.08073,-0.0346 -0.08073,-0.08073 0,-0.04613 0.04037,-0.08073 0.09803,-0.08073 0.109565,0 0.159541,0.126864 0.234507,0.253729 l 0.07496,0.126864 c 0.119176,0.207596 0.315239,0.328694 0.47478,0.328694 0.02307,0 0.04613,0 0.0692,-0.0058 0.0692,0.0692 0.136475,0.196063 0.165308,0.253728 0.02883,-0.05767 0.09803,-0.18453 0.165308,-0.253728 0.02307,0.0058 0.04613,0.0058 0.0692,0.0058 0.159541,0 0.353682,-0.121098 0.47478,-0.328694 l 0.07496,-0.126864 c 0.07497,-0.126865 0.124942,-0.253729 0.234507,-0.253729 0.05767,0 0.09803,0.0346 0.09803,0.08073 0,0.04613 -0.0346,0.08073 -0.08073,0.08073 -0.04037,0 -0.04037,-0.0173 -0.05767,-0.0173 -0.01153,0 -0.02307,0.0058 -0.02307,0.02307 0,0.02307 0.0346,0.04613 0.08073,0.04613 0.07497,0 0.130709,-0.05767 0.130709,-0.132631 0,-0.05767 -0.04037,-0.109565 -0.09803,-0.126865 l 0.08073,-0.121097 c 0.04037,0.0058 0.07497,0.01153 0.113409,0.01153 0.26334,0 0.463247,-0.196063 0.463247,-0.469014 0,-0.02883 0,-0.06343 -0.0058,-0.09226 -0.01153,-0.06343 0,-0.103798 0.04613,-0.103798 0.02883,0 0.04613,0.0173 0.04613,0.04037 0,0.0173 -0.01153,0.04037 0.01153,0.04037 0.02883,0 0.02883,-0.0346 0.02883,-0.04613 0,-0.0519 -0.02883,-0.0865 -0.0865,-0.0865 z m -0.148008,0.993771 c -0.251807,0.259495 -0.622789,0.445947 -0.978393,0.618944 -0.234507,0.115331 -0.463247,0.230662 -0.640088,0.370982 -0.176841,-0.138398 -0.405582,-0.253729 -0.640088,-0.370982 -0.353683,-0.172997 -0.726587,-0.359449 -0.978393,-0.618944 -0.319083,-0.328694 -0.47478,-0.665077 -0.47478,-1.04567 0,-0.322927 0.124942,-0.595878 0.411348,-0.959171 0.02307,-0.02883 0.04613,-0.05767 0.04613,-0.08073 0,-0.02307 -0.02307,-0.0692 -0.0346,-0.09227 l -0.199908,-0.44018 c -0.04613,-0.09803 -0.09227,-0.190297 -0.09227,-0.288328 0,-0.08073 0.0519,-0.138398 0.119176,-0.196063 l 0.288328,-0.261418 c 0.01153,-0.01153 0.01153,-0.02883 0.0058,-0.04037 l -0.09227,-0.190296 c -0.01153,-0.02307 -0.01153,-0.04037 0.0058,-0.0519 0.28064,-0.190297 0.515146,-0.247962 0.851529,-0.340227 0.321005,-0.0865 0.605489,-0.161464 0.784252,-0.276795 0.176841,0.115331 0.463247,0.190296 0.784252,0.276795 0.338305,0.09226 0.567045,0.161464 0.851529,0.340227 0.0173,0.01153 0.0173,0.02883 0.0058,0.0519 l -0.09227,0.190296 c -0.0058,0.01153 -0.0058,0.02883 0.0058,0.04037 l 0.286406,0.259495 c 0.0692,0.05767 0.119176,0.115332 0.119176,0.196063 0,0.09803 -0.04613,0.190297 -0.09227,0.288328 l -0.199908,0.440181 c -0.01153,0.02307 -0.0346,0.0692 -0.0346,0.09227 0,0.02307 0.02307,0.0519 0.04613,0.08073 0.309472,0.345994 0.411348,0.636244 0.411348,0.959171 0.0019,0.382515 -0.151852,0.718898 -0.472858,1.047592 z m 0.269106,-1.987541 c -0.0519,-0.06343 -0.08073,-0.09226 -0.08073,-0.115331 0,-0.02307 0.0173,-0.05767 0.0346,-0.09803 l 0.171075,-0.382515 c 0.0519,-0.115331 0.09803,-0.213363 0.09803,-0.33446 0,-0.0865 -0.0346,-0.172997 -0.119176,-0.247962 l -0.24604,-0.213363 c -0.02307,-0.0173 -0.02307,-0.04613 -0.01153,-0.0692 l 0.09227,-0.207596 c 0.0058,-0.01153 0.0058,-0.02883 -0.01153,-0.04037 -0.280639,-0.190296 -0.599722,-0.305628 -0.903428,-0.394048 -0.303705,-0.08458 -0.711209,-0.199908 -0.911116,-0.355605 -0.199908,0.155697 -0.605489,0.265262 -0.909194,0.353683 -0.303706,0.0865 -0.622789,0.201829 -0.903428,0.394048 -0.0173,0.01153 -0.0173,0.02883 -0.01153,0.04037 l 0.09227,0.207596 c 0.01153,0.02307 0.01153,0.0519 -0.01153,0.0692 l -0.24604,0.213362 c -0.0865,0.07497 -0.119176,0.161464 -0.119176,0.247962 0,0.121098 0.04613,0.21913 0.09803,0.334461 l 0.171074,0.382515 c 0.0173,0.04037 0.0346,0.07496 0.0346,0.09803 0,0.02307 -0.02883,0.0519 -0.08073,0.115332 -0.257573,0.324849 -0.361371,0.590111 -0.361371,0.943793 0,0.49208 0.240273,0.866906 0.515146,1.15139 0.280639,0.288328 0.668921,0.480547 1.024525,0.653543 0.234507,0.115332 0.480547,0.230663 0.709287,0.417115 0.22874,-0.18453 0.47478,-0.299861 0.709287,-0.417115 0.353682,-0.172996 0.749653,-0.365215 1.024525,-0.653543 0.274873,-0.282561 0.515146,-0.65931 0.515146,-1.15139 -0.0038,-0.353682 -0.10572,-0.618944 -0.363293,-0.941871 z"
       style="clip-rule:evenodd;fill:#1e2044;fill-rule:evenodd;stroke-width:0.264583" />
  </g>
</svg>
