<?xml version="1.0" encoding="UTF-8" standalone="no"?>
<!-- Created with Inkscape (http://www.inkscape.org/) -->

<svg
   width="32"
   height="32"
   viewBox="0 0 32 32"
   version="1.1"
   id="svg1"
   xmlns="http://www.w3.org/2000/svg"
   xmlns:svg="http://www.w3.org/2000/svg">
  <defs
     id="defs1" />
  <g
     id="layer1">
    <path
       id="rect1"
       style="fill:#fe0000;stroke-width:1.19019"
       d="M 2.1328125 0 C 0.9517328 0 0 1.1857695 0 2.6582031 L 0 29.341797 C 0 30.81423 0.9517328 32 2.1328125 32 L 29.867188 32 C 31.048267 32 32 30.81423 32 29.341797 L 32 2.6582031 C 32 1.1857695 31.048267 0 29.867188 0 L 2.1328125 0 z M 16.296875 8.3222656 C 16.243275 8.7955452 16.266174 9.303111 16.402344 9.7128906 C 16.585644 10.264719 16.839848 10.662334 17.773438 11.876953 C 18.758557 13.158612 19.072211 13.62246 19.306641 14.287109 C 19.49829 14.830469 19.502122 15.145462 19.419922 15.638672 C 20.283021 15.803082 21.698305 16.261409 22.646484 16.830078 C 23.526023 17.370978 24.166201 18.071564 24.400391 18.751953 C 24.5389 19.154533 24.533699 19.777749 24.386719 20.167969 C 24.245539 20.542728 24.051225 20.856982 23.765625 21.169922 C 22.630446 22.413481 20.383369 23.305504 17.675781 23.589844 C 17.076872 23.652744 15.608858 23.697319 15.105469 23.667969 C 11.488592 23.457489 8.5796223 22.207984 7.7519531 20.509766 C 7.4076935 19.803526 7.4164672 19.196526 7.7792969 18.498047 C 8.0784166 17.922177 8.8971291 17.209649 9.8613281 16.6875 C 10.788877 16.24093 11.660281 15.907211 12.59375 15.644531 C 12.63915 16.253901 13.827574 17.710873 14.220703 18.226562 C 15.077882 19.348631 15.415953 19.88382 15.658203 20.3125 C 15.803693 20.56996 15.886803 20.73452 15.845703 21.224609 C 15.845703 21.224609 16.174378 20.925545 16.298828 20.671875 C 16.459858 20.343675 16.517278 20.011854 16.486328 19.583984 C 16.449028 19.068535 16.361594 18.752556 16.115234 18.248047 C 15.875755 17.757497 15.533649 17.260174 14.880859 16.458984 C 13.95915 15.327756 13.617372 14.70749 13.476562 13.900391 C 13.320263 13.004512 13.572021 12.05171 14.087891 11.587891 C 14.200091 11.486981 14.380859 11.388672 14.380859 11.388672 C 14.380859 11.388672 14.365234 11.61851 14.365234 11.880859 C 14.365234 12.435719 14.427775 12.725708 14.640625 13.148438 C 14.904985 13.673297 15.270839 14.163128 16.392578 15.498047 C 17.385347 16.679466 17.693359 17.281321 17.693359 18.03125 C 17.693359 18.20733 17.695312 18.392578 17.695312 18.392578 C 17.695312 18.392578 17.956675 18.191122 18.078125 18.007812 C 18.462985 17.426803 18.523468 16.521579 18.230469 15.71875 C 18.029609 15.168401 17.704537 14.66647 16.742188 13.457031 C 15.762688 12.225882 15.351562 11.239998 15.351562 10.417969 C 15.351562 9.5959503 15.529996 8.8121951 16.296875 8.3222656 z " />
  </g>
</svg>
